<svg width="36" height="23" viewBox="0 0 36 23" fill="none" xmlns="http://www.w3.org/2000/svg">
<path d="M10.6242 10.3512C7.3446 9.21428 3.06972 8.04975 1.24031 4.79746C0.330263 3.1796 1.40776 2.13107 3.19959 2.13107C5.54137 2.13107 9.59309 1.62434 11.5523 3.19173C12.0873 3.61969 12.3442 4.12539 13.0107 4.45864C13.9171 4.9118 14.7753 4.27655 15.8097 4.11982C17.4296 3.87438 19.0068 3.72207 20.6416 3.72207C21.8132 3.72207 22.9437 4.2524 24.133 4.2524C24.5789 4.2524 25.2705 4.72943 25.4736 4.45864C26.1973 3.49372 27.4343 2.73656 28.5377 2.26365C29.7755 1.73316 32.6149 0.631613 33.8263 1.60074C35.4786 2.92255 33.7559 5.27919 33.3107 6.74202C32.6808 8.81165 31.699 8.50935 30.0403 9.82089C28.4043 11.1144 28.729 12.2153 28.0663 14.0046C27.6122 15.2308 27.1398 17.3331 26.2691 18.3062C25.6778 18.967 25.1803 19.6601 24.5455 20.295C23.6814 21.1591 22.6767 21.32 21.555 21.7534C19.3729 22.5964 16.7305 21.9307 14.6607 21.1641C12.8837 20.506 11.9786 18.1153 11.3608 16.509C10.8799 15.2586 10.0939 14.9956 10.0939 13.5332C10.0939 12.2534 10.0157 11.4272 9.29842 10.3512" stroke="black" stroke-linecap="round" stroke-linejoin="round"/>
<path d="M13.2759 10.3512C14.4033 10.3512 15.3924 10.086 16.4579 10.086" stroke="black" stroke-linecap="round" stroke-linejoin="round"/>
<path d="M20.7006 10.8815C21.8821 10.8815 23.031 10.9886 24.1477 10.6164" stroke="black" stroke-linecap="round" stroke-linejoin="round"/>
<path d="M14.8669 16.9804C17.0477 18.2569 19.4424 17.7082 21.2309 15.9197" stroke="black" stroke-linecap="round" stroke-linejoin="round"/>
</svg>
