<svg width="199" height="13" viewBox="0 0 199 13" fill="none" xmlns="http://www.w3.org/2000/svg">
<path d="M1 12C2.95618 9.8598 5.51304 7.20745 9.0651 6.27589C12.5124 5.3718 17.2935 5.80887 20.891 5.87293C24.5013 5.93721 28.7996 6.12367 32.2027 6.97848C35.6448 7.84311 38.628 8.92065 42.3098 9.21027C47.0587 9.58383 52.3224 9.65281 57.0738 9.29293C59.7667 9.08895 62.6871 8.93857 64.7569 7.57776C65.6986 6.95862 66.2919 6.09146 67.2543 5.51129C69.1173 4.38816 71.5597 3.66008 73.8356 3.07286C79.8327 1.52559 85.7715 1.02706 92.1107 1.02706C96.3375 1.02706 100.6 0.762997 104.612 1.88464C108.969 3.10248 111.935 5.60584 115.366 7.73275C116.881 8.67194 118.104 9.68681 119.229 10.8634C120.321 12.0049 120.72 11.0566 121.903 10.3675C125.191 8.45226 129.089 6.19003 133.274 5.38731C137.686 4.54096 142.521 4.31775 147.068 4.38507C152.083 4.45932 156.387 5.9177 161.127 6.88549C167.453 8.17722 173.632 7.72458 180.136 7.99105C184.444 8.16754 188.7 8.73796 193.005 8.94163C196.25 9.09514 196.562 8.22598 198 6.42054" stroke="black" stroke-linecap="round" stroke-linejoin="round"/>
</svg>
