<svg width="277" height="35" viewBox="0 0 277 35" fill="none" xmlns="http://www.w3.org/2000/svg">
<path d="M0.653275 26.4537C8.16222 20.4807 19.4158 18.497 27.7513 23.7912C32.1134 26.5617 36.1322 32.0479 41.5368 32.3743C49.5982 32.8612 58.6667 29.1229 65.1841 24.597C67.5823 22.9316 69.9268 19.8325 73.0315 19.8325C77.064 19.8325 81.3799 21.6033 84.7676 23.6861C86.8724 24.9802 88.9312 26.8902 90.0576 29.1162C90.32 29.6348 90.4273 30.4331 91.1086 29.8344C92.7811 28.3646 94.1474 26.5287 95.8205 25.0349C102.479 19.0896 110.638 12.0776 120.011 11.95C126.733 11.8586 131.59 13.8391 136.231 18.8866C138.513 21.3681 140.424 23.9787 142.292 26.769C143.67 28.8278 145.342 30.926 147.564 32.1116C148.568 32.6471 148.983 32.9396 149.841 32.024C152.425 29.2687 153.947 25.4656 156.13 22.3899C159.746 17.2941 163.705 15.9748 169.057 19.5872C173.632 22.6752 178.019 26.6224 181.932 30.5351C183.716 32.3197 186.12 34.2901 188.746 34.3362C191.146 34.3783 193.518 34.0164 195.892 33.7056C207.614 32.1711 219.475 31.2892 231.066 28.8885C242.047 26.614 251.057 21.9363 259.723 14.8753C265.25 10.3713 270.189 5.23118 275.593 0.599335" stroke="black" stroke-linecap="round" stroke-linejoin="round"/>
</svg>
