<svg width="261" height="48" viewBox="0 0 261 48" fill="none" xmlns="http://www.w3.org/2000/svg">
<path d="M1.19693 14.8875C5.32416 12.3561 9.50136 9.83727 13.7566 7.52858C15.8962 6.36774 18.1218 5.01664 20.6202 5.01664C23.0048 5.01664 24.4277 5.50334 26.4578 6.89175C32.7355 11.1851 37.9052 16.4473 42.8031 22.2464C48.2621 28.7099 54.2586 34.8995 61.3242 39.6354C66.9641 43.4157 78.0618 49.7888 84.8514 44.9246C89.3155 41.7264 91.4822 35.1285 93.2364 30.2244C95.2544 24.5826 96.7974 18.7937 98.9324 13.1893C100.476 9.13687 102.716 1.11446 108.22 0.965703C112.359 0.853839 115.63 4.37545 118.197 7.21016C121.553 10.9171 124.709 15.0142 126.829 19.5576C127.677 21.3749 130.542 20.6189 132.189 20.6189C145.425 20.6189 158.794 20.2996 171.885 18.2131C187.63 15.7036 202.98 11.1276 218.815 9.12065C229.189 7.80596 239.655 7.88237 250.091 7.88237C253.534 7.88237 256.992 7.56396 260.386 7.56396" stroke="black" stroke-linecap="round" stroke-linejoin="round"/>
</svg>
