<svg width="227" height="48" viewBox="0 0 227 48" fill="none" xmlns="http://www.w3.org/2000/svg">
<path d="M0.593956 42.1184C0.759148 38.4016 1.94258 34.4706 5.21963 32.5135C7.47588 31.166 10.2709 31.4204 12.8063 31.5412C17.7487 31.7765 21.3624 34.2548 25.1955 37.1391C28.998 40.0005 32.6061 43.8323 37.069 45.6539C40.6649 47.1216 46.4661 48.2415 50.0327 46.1253C54.4139 43.5258 57.6112 39.367 61.2876 35.9459C65.1502 32.3515 68.4941 31.8466 73.7209 31.7916C81.3583 31.7112 89.6749 31.0261 97.1439 32.9554C101.688 34.1291 104.819 36.4797 108.384 39.3194C110.711 41.1728 112.966 42.5956 116 42.8549C119.586 43.1615 122.884 41.9614 126.401 41.647C127.737 41.5274 128.899 41.4038 130.201 41.0282C135.754 39.4276 141.317 37.903 146.936 36.5499C154.977 34.6137 163.074 32.9074 170.919 30.2448C177.807 27.9069 183.753 24.6407 189.54 20.2422C196.659 14.8304 203.21 7.7765 211.342 3.84604C216.068 1.56191 220.622 1.08476 225.72 1.8131" stroke="black" stroke-linecap="round" stroke-linejoin="round"/>
</svg>
