<svg width="190" height="35" viewBox="0 0 190 35" fill="none" xmlns="http://www.w3.org/2000/svg">
<path d="M1.15218 25.1202C2.36397 18.9603 10.2976 14.6367 15.6577 12.5959C19.381 11.1783 23.2131 10.5635 26.1477 13.4981C27.7389 15.0893 29.1772 16.9059 31.3838 17.6198C34.6304 18.6702 37.4432 17.3847 39.928 15.2494C42.2199 13.2797 43.5605 11.0089 45.1995 8.49191C46.5252 6.45595 48.0208 4.49923 49.445 2.53049C50.0111 1.7479 50.7357 0.736042 51.7801 0.62C54.5642 0.31065 57.668 3.10643 59.8642 4.40559C63.6817 6.66384 67.2771 9.09429 70.425 12.2421C72.3478 14.165 73.3626 16.6056 75.8557 17.8144C78.9364 19.308 81.1167 22.3092 84.5767 22.9621C89.3073 23.8546 94.6422 24.7029 99.2061 22.5552C101.103 21.6627 102.902 20.6834 104.655 19.5303C107.172 17.8739 109.912 15.333 112.809 14.4356C115.034 13.7467 118.676 13.4483 120.805 14.6125C122.953 15.787 124.853 17.3423 127.067 18.4158C129.498 19.5942 132.515 20.5258 135.205 20.9101C139.518 21.5262 145.695 23.2151 147.87 27.3491C148.481 28.5098 148.628 30.7839 149.551 31.63C150.529 32.5268 151.874 32.9361 150.17 33.7882C148.572 34.5871 151.208 34.2928 151.727 34.2127C154.675 33.7572 157.568 32.8014 160.465 32.1076C166.226 30.7284 171.964 29.2682 177.678 27.7029C180.78 26.853 183.888 25.9244 186.929 24.8726C187.752 24.588 189.052 24.2177 189.3 23.2274C189.434 22.6895 189.335 22.5348 189.335 23.2097" stroke="black" stroke-linecap="round" stroke-linejoin="round"/>
</svg>
