<svg width="310" height="32" viewBox="0 0 310 32" fill="none" xmlns="http://www.w3.org/2000/svg">
<path d="M0.815819 14.5138C6.72544 14.5138 12.6351 14.5138 18.5447 14.5138C23.215 14.5138 27.0008 15.311 31.517 16.1474C36.5071 17.0714 39.5517 15.5411 44.0569 13.3127C49.591 10.5754 54.5997 9.62404 60.7288 9.75728C63.3525 9.81432 66.134 10.6576 68.2719 12.2076C70.2271 13.6251 71.3501 16.4823 73.2206 17.6848C73.977 18.171 75.3587 17.8011 76.1034 17.6608C79.949 16.9363 83.696 15.7202 87.4902 14.7781C93.6061 13.2594 99.7761 12.3518 106.084 12.3518C109.215 12.3518 111.012 12.6141 113.267 14.8021C115.697 17.1609 117.757 20.0597 119.969 22.6335C120.589 23.3554 121.44 25.3403 122.395 24.0509C124.906 20.6622 126.941 17.2203 130.347 14.5619C137.724 8.80452 144.863 15.4071 150.862 19.6066C152.096 20.4701 152.906 20.0974 154.033 19.2223C157.395 16.6144 160.501 13.9391 164.099 11.607C171.886 6.55977 179.728 2.37212 188.963 0.868835C194.639 -0.0552416 198.5 0.95102 202.656 4.97674C204.866 7.11769 207.483 9.757 209.046 12.4478C209.2 12.7128 209.462 13.9953 209.814 14.1054C211.062 14.4952 215.855 11.5252 216.733 11.1506C225.339 7.47938 234.148 4.02167 243.543 3.12698C248.834 2.62308 254.046 2.66103 257.043 7.57121C259.684 11.8969 261.608 16.7515 263.53 21.4324C265.473 26.1662 268.442 29.5579 273.859 29.9845C280.156 30.4803 286.525 29.9526 292.837 30.3208C296.515 30.5354 300.15 31.004 303.84 30.9454C305.566 30.918 307.171 29.5439 308.692 28.7834" stroke="black" stroke-linecap="round" stroke-linejoin="round"/>
</svg>
